<?xml version="1.0" encoding="UTF-8" standalone="no"?>
<!DOCTYPE svg PUBLIC "-//W3C//DTD SVG 1.1//EN"
 "http://www.w3.org/Graphics/SVG/1.1/DTD/svg11.dtd">
<!-- Generated by graphviz version 2.38.0 (20140413.2041)
 -->
<!-- Title: G Pages: 1 -->
<svg width="343pt" height="466pt"
 viewBox="0.00 0.00 342.89 466.00" xmlns="http://www.w3.org/2000/svg" xmlns:xlink="http://www.w3.org/1999/xlink">
<g id="graph0" class="graph" transform="scale(1 1) rotate(0) translate(4 462)">
<title>G</title>
<polygon fill="white" stroke="none" points="-4,4 -4,-462 338.894,-462 338.894,4 -4,4"/>
<g id="clust1" class="cluster"><title>cluster_Global</title>
<path fill="none" stroke="gray" d="M20,-44C20,-44 314.894,-44 314.894,-44 320.894,-44 326.894,-50 326.894,-56 326.894,-56 326.894,-438 326.894,-438 326.894,-444 320.894,-450 314.894,-450 314.894,-450 20,-450 20,-450 14,-450 8,-444 8,-438 8,-438 8,-56 8,-56 8,-50 14,-44 20,-44"/>
<text text-anchor="middle" x="167.447" y="-437.2" font-family="Times,serif" font-size="11.00" fill="gray">Global</text>
</g>
<g id="clust2" class="cluster"><title>cluster_\App</title>
<path fill="none" stroke="gray" d="M28,-52C28,-52 306.894,-52 306.894,-52 312.894,-52 318.894,-58 318.894,-64 318.894,-64 318.894,-410 318.894,-410 318.894,-416 312.894,-422 306.894,-422 306.894,-422 28,-422 28,-422 22,-422 16,-416 16,-410 16,-410 16,-64 16,-64 16,-58 22,-52 28,-52"/>
<text text-anchor="middle" x="167.447" y="-409.2" font-family="Times,serif" font-size="11.00" fill="gray">App</text>
</g>
<g id="clust3" class="cluster"><title>cluster_\App\Controllers</title>
<path fill="none" stroke="gray" d="M36,-160C36,-160 298.894,-160 298.894,-160 304.894,-160 310.894,-166 310.894,-172 310.894,-172 310.894,-382 310.894,-382 310.894,-388 304.894,-394 298.894,-394 298.894,-394 36,-394 36,-394 30,-394 24,-388 24,-382 24,-382 24,-172 24,-172 24,-166 30,-160 36,-160"/>
<text text-anchor="middle" x="167.447" y="-381.2" font-family="Times,serif" font-size="11.00" fill="gray">Controllers</text>
</g>
<!-- \\App\\Controllers\\PolicyC -->
<g id="node1" class="node"><title>\\App\\Controllers\\PolicyC</title>
<polygon fill="none" stroke="black" points="299.394,-366 235.394,-366 235.394,-330 299.394,-330 299.394,-366"/>
<text text-anchor="middle" x="267.394" y="-345.2" font-family="Courier,monospace" font-size="11.00">PolicyC</text>
</g>
<!-- \\App\\Controllers\\PolicyInterface -->
<g id="node5" class="node"><title>\\App\\Controllers\\PolicyInterface</title>
<polygon fill="none" stroke="black" points="150,-312 32,-312 32,-276 150,-276 150,-312"/>
<text text-anchor="middle" x="91" y="-291.2" font-family="Courier,monospace" font-size="11.00">PolicyInterface</text>
</g>
<!-- \\App\\Controllers\\PolicyC&#45;&gt;\\App\\Controllers\\PolicyInterface -->
<g id="edge1" class="edge"><title>\\App\\Controllers\\PolicyC&#45;&gt;\\App\\Controllers\\PolicyInterface</title>
<path fill="none" stroke="black" stroke-dasharray="1,5" d="M235.216,-338.346C214.279,-331.863 185.87,-323.066 159.874,-315.017"/>
<polygon fill="none" stroke="black" points="160.638,-311.589 150.05,-311.975 158.567,-318.276 160.638,-311.589"/>
</g>
<!-- \\App\\Controllers\\CsvToXml -->
<g id="node2" class="node"><title>\\App\\Controllers\\CsvToXml</title>
<polygon fill="none" stroke="black" points="302.894,-204 231.894,-204 231.894,-168 302.894,-168 302.894,-204"/>
<text text-anchor="middle" x="267.394" y="-183.2" font-family="Courier,monospace" font-size="11.00">CsvToXml</text>
</g>
<!-- \\Core\\Controller -->
<g id="node8" class="node"><title>\\Core\\Controller</title>
<ellipse fill="none" stroke="black" cx="91" cy="-18" rx="68.7879" ry="18"/>
<text text-anchor="middle" x="91" y="-14.3" font-family="Times,serif" font-size="14.00" fill="gray">\Core\Controller</text>
</g>
<!-- \\App\\Controllers\\CsvToXml&#45;&gt;\\Core\\Controller -->
<g id="edge2" class="edge"><title>\\App\\Controllers\\CsvToXml&#45;&gt;\\Core\\Controller</title>
<path fill="none" stroke="black" d="M237.056,-167.997C235.276,-166.689 233.541,-165.352 231.894,-164 185.809,-126.18 139.305,-74.2881 113.218,-43.6373"/>
<polygon fill="none" stroke="black" points="115.855,-41.3354 106.728,-35.9544 110.507,-45.8524 115.855,-41.3354"/>
</g>
<!-- \\App\\Controllers\\PolicyA -->
<g id="node3" class="node"><title>\\App\\Controllers\\PolicyA</title>
<polygon fill="none" stroke="black" points="299.394,-312 235.394,-312 235.394,-276 299.394,-276 299.394,-312"/>
<text text-anchor="middle" x="267.394" y="-291.2" font-family="Courier,monospace" font-size="11.00">PolicyA</text>
</g>
<!-- \\App\\Controllers\\PolicyA&#45;&gt;\\App\\Controllers\\PolicyInterface -->
<g id="edge3" class="edge"><title>\\App\\Controllers\\PolicyA&#45;&gt;\\App\\Controllers\\PolicyInterface</title>
<path fill="none" stroke="black" stroke-dasharray="1,5" d="M235.216,-294C214.371,-294 186.121,-294 160.218,-294"/>
<polygon fill="none" stroke="black" points="160.05,-290.5 150.05,-294 160.05,-297.5 160.05,-290.5"/>
</g>
<!-- \\App\\Controllers\\PolicyB -->
<g id="node4" class="node"><title>\\App\\Controllers\\PolicyB</title>
<polygon fill="none" stroke="black" points="299.394,-258 235.394,-258 235.394,-222 299.394,-222 299.394,-258"/>
<text text-anchor="middle" x="267.394" y="-237.2" font-family="Courier,monospace" font-size="11.00">PolicyB</text>
</g>
<!-- \\App\\Controllers\\PolicyB&#45;&gt;\\App\\Controllers\\PolicyInterface -->
<g id="edge4" class="edge"><title>\\App\\Controllers\\PolicyB&#45;&gt;\\App\\Controllers\\PolicyInterface</title>
<path fill="none" stroke="black" stroke-dasharray="1,5" d="M235.216,-249.654C214.279,-256.137 185.87,-264.934 159.874,-272.983"/>
<polygon fill="none" stroke="black" points="158.567,-269.724 150.05,-276.025 160.638,-276.411 158.567,-269.724"/>
</g>
<!-- \\App\\Utility -->
<g id="node6" class="node"><title>\\App\\Utility</title>
<polygon fill="none" stroke="black" points="299.394,-150 235.394,-150 235.394,-114 299.394,-114 299.394,-150"/>
<text text-anchor="middle" x="267.394" y="-129.2" font-family="Courier,monospace" font-size="11.00">Utility</text>
</g>
<!-- \\App\\Config -->
<g id="node7" class="node"><title>\\App\\Config</title>
<polygon fill="none" stroke="black" points="295.894,-96 238.894,-96 238.894,-60 295.894,-60 295.894,-96"/>
<text text-anchor="middle" x="267.394" y="-75.2" font-family="Courier,monospace" font-size="11.00">Config</text>
</g>
</g>
</svg>
